<svg width="256" height="7" viewBox="0 0 256 7" fill="none" xmlns="http://www.w3.org/2000/svg">
<path d="M0.31722 3.5C0.31722 4.97276 1.51113 6.16667 2.98389 6.16667C4.45665 6.16667 5.65055 4.97276 5.65055 3.5C5.65055 2.02724 4.45665 0.833333 2.98389 0.833333C1.51113 0.833333 0.31722 2.02724 0.31722 3.5ZM250.349 3.5C250.349 4.97276 251.543 6.16667 253.016 6.16667C254.489 6.16667 255.683 4.97276 255.683 3.5C255.683 2.02724 254.489 0.833333 253.016 0.833333C251.543 0.833333 250.349 2.02724 250.349 3.5ZM2.98389 4H5.96046V3H2.98389V4ZM11.9136 4H17.8667V3H11.9136V4ZM23.8199 4H29.773V3H23.8199V4ZM35.7262 4H41.6793V3H35.7262V4ZM47.6325 4H53.5856V3H47.6325V4ZM59.5387 4H65.4919V3H59.5387V4ZM71.445 4L77.3982 4V3H71.445V4ZM83.3513 4H89.3045V3H83.3513V4ZM95.2576 4H101.211V3H95.2576V4ZM107.164 4H113.117V3H107.164V4ZM119.07 4H125.023V3H119.07V4ZM130.976 4H136.93V3H130.976V4ZM142.883 4H148.836V3H142.883V4ZM154.789 4H160.742V3H154.789V4ZM166.695 4H172.648V3H166.695V4ZM178.602 4H184.555V3L178.602 3V4ZM190.508 4H196.461V3H190.508V4ZM202.414 4H208.367V3H202.414V4ZM214.32 4H220.274V3H214.32V4ZM226.227 4H232.18V3H226.227V4ZM238.133 4H244.086V3H238.133V4ZM250.039 4H253.016V3H250.039V4Z" fill="black"/>
</svg>
