<svg viewBox="0 0 28 29" fill="none"
  xmlns="http://www.w3.org/2000/svg">
  <path
    d="M25.6667 20.1485V23.6485C25.668 23.9734 25.6014 24.295 25.4713 24.5927C25.3411 24.8904 25.1502 25.1577 24.9108 25.3773C24.6713 25.597 24.3887 25.7642 24.0809 25.8683C23.7731 25.9724 23.4469 26.0111 23.1233 25.9818C19.5333 25.5917 16.0848 24.365 13.055 22.4001C10.2361 20.6089 7.84623 18.219 6.055 15.4001C4.08331 12.3566 2.85629 8.89131 2.47334 5.28515C2.44418 4.96252 2.48252 4.63737 2.58592 4.33037C2.68932 4.02338 2.8555 3.74128 3.0739 3.50204C3.29229 3.26279 3.55811 3.07164 3.85443 2.94075C4.15074 2.80987 4.47107 2.74212 4.795 2.74181H8.295C8.86119 2.73624 9.41009 2.93674 9.83939 3.30593C10.2687 3.67513 10.5491 4.18783 10.6283 4.74848C10.7761 5.86856 11.05 6.96833 11.445 8.02681C11.602 8.44439 11.6359 8.89821 11.5429 9.33451C11.4498 9.7708 11.2337 10.1713 10.92 10.4885L9.43834 11.9701C11.0992 14.8909 13.5175 17.3093 16.4383 18.9701L17.92 17.4885C18.2372 17.1748 18.6377 16.9586 19.074 16.8656C19.5103 16.7725 19.9641 16.8065 20.3817 16.9635C21.4402 17.3585 22.5399 17.6324 23.66 17.7801C24.2267 17.8601 24.7443 18.1456 25.1143 18.5822C25.4843 19.0189 25.6809 19.5763 25.6667 20.1485Z"
    stroke="#ffffff" stroke-width="2" stroke-linecap="round" stroke-linejoin="round" />
</svg>