<svg viewBox="0 0 32 25" fill="none"
  xmlns="http://www.w3.org/2000/svg">
  <path
    d="M22.3637 23.4078V20.918C22.3637 19.5973 21.8273 18.3307 20.8726 17.3969C19.9178 16.463 18.6229 15.9384 17.2727 15.9384H7.09092C5.74072 15.9384 4.44583 16.463 3.49109 17.3969C2.53636 18.3307 2 19.5973 2 20.918V23.4078"
    stroke="#ffffff" stroke-width="2" stroke-linecap="round" stroke-linejoin="round" />
  <path
    d="M12.1817 10.9593C14.9934 10.9593 17.2727 8.72985 17.2727 5.97966C17.2727 3.22947 14.9934 1 12.1817 1C9.3701 1 7.09082 3.22947 7.09082 5.97966C7.09082 8.72985 9.3701 10.9593 12.1817 10.9593Z"
    stroke="#ffffff" stroke-width="2" stroke-linecap="round" stroke-linejoin="round" />
  <path
    d="M30.0001 23.4084V20.9185C29.9992 19.8152 29.6238 18.7434 28.9327 17.8714C28.2416 16.9994 27.2741 16.3765 26.1819 16.1007"
    stroke="#ffffff" stroke-width="2" stroke-linecap="round" stroke-linejoin="round" />
  <path
    d="M21.0908 1.16138C22.1859 1.43563 23.1565 2.05859 23.8496 2.93203C24.5428 3.80548 24.919 4.87973 24.919 5.98542C24.919 7.09112 24.5428 8.16537 23.8496 9.03881C23.1565 9.91226 22.1859 10.5352 21.0908 10.8095"
    stroke="#ffffff" stroke-width="2" stroke-linecap="round" stroke-linejoin="round" />
</svg>