<svg class="w-6 h-6 group-hover:text-dark" viewBox=" 0 0 28 28" fill="none" stroke="#ffffff"
  xmlns="http://www.w3.org/2000/svg">
  <path
    d="M10.4999 25.6667C11.1443 25.6667 11.6666 25.1444 11.6666 24.5C11.6666 23.8557 11.1443 23.3334 10.4999 23.3334C9.85559 23.3334 9.33325 23.8557 9.33325 24.5C9.33325 25.1444 9.85559 25.6667 10.4999 25.6667Z"
    stroke="#ffffff" stroke-width="2" stroke-linecap="round" stroke-linejoin="round" />
  <path
    d="M23.3334 25.6667C23.9777 25.6667 24.5001 25.1444 24.5001 24.5C24.5001 23.8557 23.9777 23.3334 23.3334 23.3334C22.6891 23.3334 22.1667 23.8557 22.1667 24.5C22.1667 25.1444 22.6891 25.6667 23.3334 25.6667Z"
    stroke="#ffffff" stroke-width="2" stroke-linecap="round" stroke-linejoin="round" />
  <path
    d="M1.16675 1.16663H5.83341L8.96008 16.7883C9.06677 17.3254 9.35897 17.8079 9.78555 18.1513C10.2121 18.4947 10.7459 18.6771 11.2934 18.6666H22.6334C23.1809 18.6771 23.7147 18.4947 24.1413 18.1513C24.5679 17.8079 24.8601 17.3254 24.9667 16.7883L26.8334 6.99996H7.00008"
    stroke="#ffffff" stroke-width="2" stroke-linecap="round" stroke-linejoin="round" />
</svg>